<?xml version="1.0" standalone="no"?>
<!DOCTYPE svg PUBLIC "-//W3C//DTD SVG 20010904//EN"
 "http://www.w3.org/TR/2001/REC-SVG-20010904/DTD/svg10.dtd">
<svg version="1.0" xmlns="http://www.w3.org/2000/svg"
 width="400.000000pt" height="400.000000pt" viewBox="0 0 400.000000 400.000000"
 preserveAspectRatio="xMidYMid meet">

<g transform="translate(0.000000,400.000000) scale(0.100000,-0.100000)"
fill="#fff" stroke="none">
<path d="M820 3210 l0 -150 50 0 50 0 0 150 0 150 -50 0 -50 0 0 -150z"/>
<path d="M1270 3210 l0 -150 50 0 50 0 0 150 0 150 -50 0 -50 0 0 -150z"/>
<path d="M1710 3210 l0 -150 50 0 50 0 0 150 0 150 -50 0 -50 0 0 -150z"/>
<path d="M2187 3353 c-4 -3 -7 -71 -7 -150 l0 -143 55 0 55 0 0 150 0 150 -48
0 c-27 0 -52 -3 -55 -7z"/>
<path d="M2637 3353 c-4 -3 -7 -71 -7 -150 l0 -143 55 0 55 0 0 150 0 150 -48
0 c-27 0 -52 -3 -55 -7z"/>
<path d="M3077 3353 c-4 -3 -7 -71 -7 -150 l0 -143 55 0 55 0 0 150 0 150 -48
0 c-27 0 -52 -3 -55 -7z"/>
<path d="M730 2895 l0 -105 -94 0 -94 0 -7 -32 c-24 -108 -127 -201 -247 -223
l-38 -7 0 -174 c0 -150 2 -174 15 -174 31 0 96 -41 115 -73 13 -20 20 -50 20
-79 0 -41 -5 -54 -35 -86 -19 -22 -52 -44 -75 -52 l-40 -13 0 -174 0 -173 25
0 c39 0 120 -35 165 -70 44 -35 80 -95 89 -150 l6 -35 98 -3 97 -3 0 -104 0
-105 140 0 140 0 0 105 0 105 80 0 80 0 0 -105 0 -105 140 0 140 0 0 105 0
105 85 0 85 0 0 -105 0 -105 140 0 140 0 0 105 0 105 100 0 100 0 0 -105 0
-105 140 0 140 0 0 105 0 105 80 0 80 0 0 -105 0 -105 135 0 134 0 3 103 3
102 88 3 87 3 0 -106 0 -105 135 0 134 0 3 103 3 102 97 3 c97 3 98 3 104 30
26 121 132 213 264 229 l50 6 -2 170 -3 171 -39 8 c-84 18 -136 74 -136 148 0
74 52 130 136 148 l39 8 3 172 2 172 -37 0 c-45 1 -140 38 -181 71 -44 36 -80
91 -94 142 l-12 46 -95 3 -96 3 0 103 0 102 -137 0 -138 0 0 -105 0 -105 -80
0 -80 0 0 105 0 105 -140 0 -140 0 0 -105 0 -105 -85 0 -85 0 0 105 0 105
-140 0 -140 0 0 -105 0 -105 -100 0 -100 0 0 105 0 105 -140 0 -140 0 0 -105
0 -105 -80 0 -80 0 0 105 0 105 -140 0 -140 0 0 -105 0 -105 -85 0 -85 0 0
105 0 105 -140 0 -140 0 0 -105z m2498 -550 c2 -110 0 -359 -3 -552 l-7 -353
-1224 0 -1224 0 0 555 0 555 1228 -2 1227 -3 3 -200z"/>
<path d="M860 1995 l0 -475 1140 0 1140 0 0 475 0 475 -1140 0 -1140 0 0 -475z
m238 -342 l-3 -78 -85 0 -85 0 -3 78 -3 77 91 0 91 0 -3 -77z"/>
<path d="M820 855 l0 -145 50 0 50 0 0 145 0 145 -50 0 -50 0 0 -145z"/>
<path d="M1260 855 l0 -145 50 0 50 0 0 145 0 145 -50 0 -50 0 0 -145z"/>
<path d="M1710 855 l0 -145 50 0 50 0 0 145 0 145 -50 0 -50 0 0 -145z"/>
<path d="M2180 855 l0 -145 55 0 55 0 0 145 0 145 -55 0 -55 0 0 -145z"/>
<path d="M2620 855 l0 -145 55 0 55 0 0 145 0 145 -55 0 -55 0 0 -145z"/>
<path d="M3070 855 l0 -145 55 0 55 0 0 145 0 145 -55 0 -55 0 0 -145z"/>
</g>
</svg>
