<?xml version="1.0" standalone="no"?>
<!DOCTYPE svg PUBLIC "-//W3C//DTD SVG 20010904//EN"
 "http://www.w3.org/TR/2001/REC-SVG-20010904/DTD/svg10.dtd">
<svg version="1.0" xmlns="http://www.w3.org/2000/svg"
 width="2000.000000pt" height="408.000000pt" viewBox="0 0 2000.000000 408.000000"
 preserveAspectRatio="xMidYMid meet">

<g transform="translate(0.000000,408.000000) scale(0.100000,-0.100000)"
fill="#fff" stroke="none">
<path d="M1050 3105 l0 -145 50 0 50 0 0 145 0 145 -50 0 -50 0 0 -145z"/>
<path d="M1500 3105 l0 -145 50 0 50 0 0 145 0 145 -50 0 -50 0 0 -145z"/>
<path d="M1940 3105 l0 -145 50 0 50 0 0 145 0 145 -50 0 -50 0 0 -145z"/>
<path d="M2420 3105 l0 -145 50 0 50 0 0 145 0 145 -50 0 -50 0 0 -145z"/>
<path d="M2870 3105 l0 -145 50 0 50 0 0 145 0 145 -50 0 -50 0 0 -145z"/>
<path d="M3310 3105 l0 -145 50 0 50 0 0 145 0 145 -50 0 -50 0 0 -145z"/>
<path d="M13900 1990 l0 -1250 230 0 230 0 1 118 0 117 152 200 c84 110 156
200 162 200 5 0 89 -142 186 -315 l176 -315 262 -3 263 -2 -20 32 c-11 18
-104 182 -207 363 -103 182 -228 401 -278 487 -64 113 -87 161 -80 170 60 77
435 546 496 622 60 75 76 101 66 107 -8 5 -121 9 -252 9 l-239 0 -23 -27 c-13
-16 -130 -163 -260 -328 -130 -165 -273 -347 -318 -404 l-82 -104 -3 786 -2
787 -230 0 -230 0 0 -1250z"/>
<path d="M17590 2885 c0 -277 -3 -355 -12 -356 -7 0 -56 -1 -108 -2 l-95 -2
-3 -227 -2 -228 109 0 110 0 3 -337 c5 -374 7 -391 74 -533 94 -200 275 -357
492 -428 72 -23 94 -25 325 -29 l247 -5 0 225 0 225 -212 4 c-204 3 -215 4
-268 29 -99 46 -159 113 -193 213 -14 42 -17 96 -17 343 l0 293 345 0 345 0
-2 228 -3 227 -340 2 -340 2 -3 356 -2 355 -225 0 -225 0 0 -355z"/>
<path d="M6658 3132 l-948 -2 0 -235 0 -235 360 0 360 0 0 -960 0 -960 238 0
237 0 -3 937 c-1 516 0 948 3 961 l5 22 355 0 355 0 0 234 c0 129 -3 236 -7
238 -5 2 -434 2 -955 0z"/>
<path d="M10032 3132 l-952 -2 2 -233 3 -232 360 -5 360 -5 3 -957 2 -958 235
0 235 0 2 958 3 957 358 3 357 2 0 235 c0 128 -3 235 -7 237 -5 2 -437 2 -961
0z"/>
<path d="M4970 1935 l0 -1195 240 0 240 0 0 1195 0 1195 -240 0 -240 0 0
-1195z"/>
<path d="M11260 1935 l0 -1195 240 0 240 0 0 1195 0 1195 -240 0 -240 0 0
-1195z"/>
<path d="M960 2795 l0 -105 -92 0 -93 0 -17 -59 c-29 -97 -134 -184 -241 -199
l-37 -5 2 -169 3 -170 40 -13 c48 -17 101 -74 109 -120 10 -53 -19 -112 -73
-146 -24 -16 -53 -29 -63 -29 -17 0 -18 -13 -18 -170 l0 -170 28 -6 c145 -32
236 -112 257 -227 l7 -37 94 0 93 0 3 -102 3 -103 134 0 133 0 2 100 1 100 83
3 82 3 0 -106 0 -106 138 3 137 3 3 103 3 102 84 0 85 0 0 -105 0 -105 140 0
140 0 0 105 0 105 100 0 100 0 0 -105 0 -105 135 0 135 0 0 105 0 105 85 0 85
0 0 -105 0 -105 135 0 135 0 0 105 0 105 90 0 90 0 0 -105 0 -105 135 0 135 0
0 105 0 105 98 0 98 0 12 45 c30 113 126 194 252 213 l51 7 2 167 2 167 -40
10 c-60 16 -102 46 -125 90 -25 50 -25 72 0 122 23 44 65 74 125 90 l40 10 -2
167 -2 167 -48 6 c-61 9 -94 22 -150 60 -52 36 -101 108 -110 161 l-6 38 -98
0 -99 0 0 105 0 105 -135 0 -135 0 0 -105 0 -105 -85 0 -85 0 0 105 0 105
-135 0 -135 0 0 -105 0 -106 -87 3 -88 3 -3 103 -3 102 -134 0 -135 0 0 -105
0 -105 -100 0 -100 0 0 105 0 105 -140 0 -140 0 0 -105 0 -105 -80 0 -80 0 0
105 0 105 -140 0 -140 0 0 -105 0 -106 -87 3 -88 3 0 103 0 102 -137 0 -138 0
0 -105z m2500 -900 l0 -555 -1230 0 -1230 0 0 555 0 555 1230 0 1230 0 0 -555z"/>
<path d="M1090 1895 l0 -475 1140 0 1140 0 0 475 0 475 -1140 0 -1140 0 0
-475z m240 -345 l0 -80 -90 0 -90 0 0 80 0 80 90 0 90 0 0 -80z"/>
<path d="M12836 2589 c-108 -12 -164 -28 -265 -75 -119 -56 -198 -113 -287
-206 -122 -129 -213 -302 -249 -473 -24 -111 -24 -326 0 -425 36 -155 115
-299 229 -418 183 -191 398 -282 666 -282 105 0 146 5 226 26 110 28 231 88
323 158 72 55 183 175 179 193 -3 14 -307 323 -318 323 -5 0 -22 -23 -40 -50
-57 -88 -153 -155 -265 -185 -290 -75 -566 149 -565 459 0 122 59 268 145 363
201 222 550 173 694 -97 l34 -64 164 168 164 167 -18 30 c-23 40 -108 138
-153 176 -184 157 -437 238 -664 212z"/>
<path d="M16409 2589 c-107 -11 -191 -34 -286 -79 -198 -92 -340 -235 -434
-434 -70 -150 -83 -214 -83 -426 0 -173 2 -191 28 -275 80 -264 242 -461 471
-571 142 -69 207 -85 380 -91 137 -4 158 -2 248 21 182 47 354 152 461 282 31
38 56 70 56 74 0 3 -73 78 -163 168 l-163 162 -43 -66 c-76 -115 -228 -194
-373 -194 -57 0 -98 8 -98 19 0 6 200 248 760 922 l88 107 -52 64 c-183 222
-503 349 -797 317z m176 -457 c27 -6 40 -13 39 -24 -1 -8 -118 -169 -260 -357
-243 -322 -259 -341 -270 -319 -40 77 -47 273 -14 379 23 76 83 172 137 220
92 80 247 123 368 101z"/>
<path d="M7650 1945 l0 -225 705 0 705 0 0 225 0 225 -705 0 -705 0 0 -225z"/>
<path d="M1050 755 l0 -145 50 0 50 0 0 145 0 145 -50 0 -50 0 0 -145z"/>
<path d="M1490 755 l0 -145 50 0 50 0 0 145 0 145 -50 0 -50 0 0 -145z"/>
<path d="M1940 755 l0 -145 50 0 50 0 0 145 0 145 -50 0 -50 0 0 -145z"/>
<path d="M2420 755 l0 -145 50 0 50 0 0 145 0 145 -50 0 -50 0 0 -145z"/>
<path d="M2860 755 l0 -145 50 0 50 0 0 145 0 145 -50 0 -50 0 0 -145z"/>
<path d="M3310 755 l0 -145 50 0 50 0 0 145 0 145 -50 0 -50 0 0 -145z"/>
</g>
</svg>
